# File created by Blade
# Date/Time:  Tue Jan 27 19:14:06 2015
# Frame Rate: 120.000 fps
#------------------------------------------------------
:FULLY-SPECIFIED
:DEGREES
3380
root 4.040738 32.502680 0.937195 -3.780970 3.334047 0.754882
Spine -0.817793 2.713374 -0.736614
Head 15.773895 -18.339124 -6.086556
LeftShoulder -5.981739 -6.827545 22.779033
LeftArm -7.582011 38.970940 -104.877380
LeftForeArm 3.899874 -0.000000 12.009800
LeftHand 9.805830 -0.000000 -6.789378
LeftHandThumb1 -26.253704 0.000000 33.147579
RightShoulder -12.037704 11.861570 -59.415936
RightArm 41.235929 73.255997 48.842592
RightForeArm 28.928849 -0.000000 107.756750
RightHand 33.384536 -0.000000 -10.941321
RightHandThumb1 -24.326973 -0.000000 -32.862282
LeftUpLeg 10.327411 -2.406717 -0.995211
LeftLeg 1.745058 -0.000000 -0.000000
LeftFoot -14.978101 10.231455 -22.001335
LeftToeBase 18.509101 -0.000000 -0.000000
RightUpLeg 9.805609 -0.661256 3.332471
RightLeg 0.457739 -0.000000 -0.000000
RightFoot -12.089542 -15.783535 14.201195
RightToeBase 12.051113 -0.000000 -0.000000
3381
root 4.038940 32.502265 0.936924 -3.778425 3.328472 0.751997
Spine -0.828724 2.728925 -0.741103
Head 15.766342 -18.324906 -6.100549
LeftShoulder -5.974088 -6.841826 22.775420
LeftArm -7.629433 38.859675 -104.901596
LeftForeArm 3.947766 -0.000000 12.003569
LeftHand 9.808978 0.000000 -6.809411
LeftHandThumb1 -26.253704 0.000000 33.147579
RightShoulder -12.035719 11.854461 -59.410624
RightArm 41.133375 73.172895 48.746397
RightForeArm 28.816830 -0.000000 107.794915
RightHand 33.256544 -0.000000 -11.256477
RightHandThumb1 -24.326973 -0.000000 -32.862282
LeftUpLeg 10.322395 -2.423958 -0.993122
LeftLeg 1.750733 -0.000000 -0.000000
LeftFoot -14.987826 10.237731 -22.032355
LeftToeBase 18.486196 -0.000000 -0.000000
RightUpLeg 9.801440 -0.636920 3.341281
RightLeg 0.465206 -0.000000 -0.000000
RightFoot -12.134344 -15.801649 14.272781
RightToeBase 12.185955 -0.000000 -0.000000
3382
root 4.037434 32.501692 0.937625 -3.782153 3.314502 0.751370
Spine -0.833973 2.748332 -0.752002
Head 15.747164 -18.324804 -6.083746
LeftShoulder -5.981730 -6.813918 22.780922
LeftArm -7.611455 38.806195 -104.908577
LeftForeArm 3.931015 -0.000000 11.967191
LeftHand 9.868410 0.000000 -6.907014
LeftHandThumb1 -26.253704 0.000000 33.147579
RightShoulder -12.031660 11.818240 -59.396427
RightArm 41.242112 73.155649 48.876788
RightForeArm 28.969019 -0.000000 107.794725
RightHand 33.331173 -0.000000 -10.952085
RightHandThumb1 -24.326973 -0.000000 -32.862282
LeftUpLeg 10.328515 -2.422521 -0.991064
LeftLeg 1.753272 -0.000000 -0.000000
LeftFoot -14.994599 10.240416 -22.051810
LeftToeBase 18.448302 -0.000000 -0.000000
RightUpLeg 9.803738 -0.634164 3.344193
RightLeg 0.462742 -0.000000 -0.000000
RightFoot -12.103067 -15.782759 14.209742
RightToeBase 12.048759 -0.000000 -0.000000
3383
root 4.036275 32.501217 0.938111 -3.787924 3.309292 0.754520
Spine -0.833092 2.756074 -0.765695
Head 15.719604 -18.330126 -6.073011
LeftShoulder -5.993064 -6.809186 22.783367
LeftArm -7.622853 38.792132 -104.937062
LeftForeArm 3.888663 -0.000000 11.935889
LeftHand 9.884414 -0.000000 -6.880835
LeftHandThumb1 -26.253704 0.000000 33.147579
RightShoulder -12.034245 11.798725 -59.382738
RightArm 41.272065 73.107747 48.921292
RightForeArm 28.999251 -0.000000 107.821574
RightHand 33.326387 -0.000000 -10.899844
RightHandThumb1 -24.326973 -0.000000 -32.862282
LeftUpLeg 10.333377 -2.428970 -0.994556
LeftLeg 1.758495 -0.000000 -0.000000
LeftFoot -15.010686 10.251612 -22.040602
LeftToeBase 18.477237 -0.000000 -0.000000
RightUpLeg 9.805119 -0.652591 3.339075
RightLeg 0.469907 -0.000000 -0.000000
RightFoot -12.105544 -15.761378 14.205441
RightToeBase 12.062022 -0.000000 -0.000000
3384
root 4.033894 32.500779 0.938487 -3.790877 3.304880 0.750442
Spine -0.835619 2.770080 -0.774756
Head 15.690979 -18.322660 -6.043722
LeftShoulder -5.991197 -6.808256 22.786853
LeftArm -7.633965 38.782797 -104.970128
LeftForeArm 3.847386 -0.000000 11.905198
LeftHand 9.848769 0.000000 -6.901993
LeftHandThumb1 -26.253704 0.000000 33.147579
RightShoulder -12.045626 11.801853 -59.376540
RightArm 41.233029 73.038182 48.891672
RightForeArm 28.983180 -0.000000 107.852538
RightHand 33.325258 -0.000000 -10.958505
RightHandThumb1 -24.326973 -0.000000 -32.862282
LeftUpLeg 10.339509 -2.434623 -0.987916
LeftLeg 1.755820 -0.000000 -0.000000
LeftFoot -15.020042 10.257703 -22.036872
LeftToeBase 18.502543 -0.000000 -0.000000
RightUpLeg 9.803308 -0.649672 3.348686
RightLeg 0.477941 -0.000000 -0.000000
RightFoot -12.108465 -15.756631 14.225827
RightToeBase 12.073304 -0.000000 -0.000000
3385
root 4.033038 32.500296 0.937884 -3.791460 3.303562 0.750823
Spine -0.838255 2.777911 -0.786531
Head 15.669447 -18.324236 -6.025801
LeftShoulder -5.991658 -6.845953 22.797511
LeftArm -7.684165 38.785882 -105.040153
LeftForeArm 3.855647 0.000000 11.866600
LeftHand 9.840481 -0.000000 -6.799220
LeftHandThumb1 -26.253704 0.000000 33.147579
RightShoulder -12.062987 11.767285 -59.353886
RightArm 41.375936 73.000796 49.029009
RightForeArm 28.968640 -0.000000 107.874786
RightHand 33.311475 -0.000000 -10.865334
RightHandThumb1 -24.326973 -0.000000 -32.862282
LeftUpLeg 10.338617 -2.439544 -0.988557
LeftLeg 1.754142 -0.000000 -0.000000
LeftFoot -15.018604 10.267362 -22.043594
LeftToeBase 18.473827 -0.000000 -0.000000
RightUpLeg 9.794863 -0.654679 3.348135
RightLeg 0.495973 -0.000000 -0.000000
RightFoot -12.116501 -15.750778 14.194678
RightToeBase 12.061496 -0.000000 -0.000000
3386
root 4.031807 32.499899 0.938132 -3.798035 3.305409 0.747680
Spine -0.835754 2.784967 -0.787034
Head 15.641709 -18.315918 -6.024837
LeftShoulder -5.991949 -6.791855 22.786871
LeftArm -7.624248 38.832372 -105.027763
LeftForeArm 3.847568 0.000000 11.855480
LeftHand 9.786236 -0.000000 -6.691573
LeftHandThumb1 -26.253704 0.000000 33.147579
RightShoulder -12.076768 11.739108 -59.344635
RightArm 41.494813 72.964644 49.136637
RightForeArm 28.932010 -0.000000 107.886746
RightHand 33.345209 -0.000000 -10.848815
RightHandThumb1 -24.326973 -0.000000 -32.862282
LeftUpLeg 10.344783 -2.439666 -0.983343
LeftLeg 1.757736 -0.000000 -0.000000
LeftFoot -15.028120 10.274985 -22.015636
LeftToeBase 18.499534 -0.000000 -0.000000
RightUpLeg 9.804396 -0.662292 3.351170
RightLeg 0.491963 -0.000000 -0.000000
RightFoot -12.117937 -15.734089 14.225182
RightToeBase 12.071746 -0.000000 -0.000000
